<svg width="1200" height="630" viewBox="0 0 1200 630" fill="none" xmlns="http://www.w3.org/2000/svg">
  <!-- Background -->
  <rect width="1200" height="630" fill="linear-gradient(135deg, #1E40AF 0%, #3B82F6 50%, #60A5FA 100%)"/>
  
  <!-- Decorative elements -->
  <circle cx="100" cy="100" r="80" fill="rgba(255,255,255,0.1)"/>
  <circle cx="1100" cy="530" r="120" fill="rgba(255,255,255,0.1)"/>
  <circle cx="200" cy="500" r="60" fill="rgba(255,255,255,0.1)"/>
  
  <!-- Map pin icon -->
  <g transform="translate(400, 200)">
    <path d="M200 0C89.543 0 0 89.543 0 200c0 110.457 200 200 200 200s200-89.543 200-200C400 89.543 310.457 0 200 0z" fill="rgba(255,255,255,0.9)"/>
    <circle cx="200" cy="200" r="80" fill="#3B82F6"/>
    <circle cx="200" cy="200" r="60" fill="white"/>
  </g>
  
  <!-- PayMap Text -->
  <text x="600" y="380" text-anchor="middle" font-family="Arial, sans-serif" font-size="72" font-weight="bold" fill="white">
    PayMap
  </text>
  
  <!-- Subtitle -->
  <text x="600" y="430" text-anchor="middle" font-family="Arial, sans-serif" font-size="32" font-weight="normal" fill="rgba(255,255,255,0.9)">
    Restaurant Payment Methods in Japan
  </text>
  
  <!-- Decorative lines -->
  <line x1="300" y1="480" x2="900" y2="480" stroke="rgba(255,255,255,0.3)" stroke-width="3"/>
  <line x1="350" y1="500" x2="850" y2="500" stroke="rgba(255,255,255,0.2)" stroke-width="2"/>
  
  <!-- Payment method icons -->
  <g transform="translate(450, 520)">
    <rect x="0" y="0" width="40" height="25" rx="5" fill="#10B981"/>
    <text x="20" y="17" text-anchor="middle" font-family="Arial, sans-serif" font-size="12" font-weight="bold" fill="white">CC</text>
  </g>
  
  <g transform="translate(500, 520)">
    <rect x="0" y="0" width="40" height="25" rx="5" fill="#F59E0B"/>
    <text x="20" y="17" text-anchor="middle" font-family="Arial, sans-serif" font-size="12" font-weight="bold" fill="white">¥</text>
  </g>
  
  <g transform="translate(550, 520)">
    <rect x="0" y="0" width="40" height="25" rx="5" fill="#EF4444"/>
    <text x="20" y="17" text-anchor="middle" font-family="Arial, sans-serif" font-size="12" font-weight="bold" fill="white">S</text>
  </g>
  
  <g transform="translate(600, 520)">
    <rect x="0" y="0" width="40" height="25" rx="5" fill="#8B5CF6"/>
    <text x="20" y="17" text-anchor="middle" font-family="Arial, sans-serif" font-size="12" font-weight="bold" fill="white">P</text>
  </g>
  
  <g transform="translate(650, 520)">
    <rect x="0" y="0" width="40" height="25" rx="5" fill="#06B6D4"/>
    <text x="20" y="17" text-anchor="middle" font-family="Arial, sans-serif" font-size="12" font-weight="bold" fill="white">L</text>
  </g>
  
  <g transform="translate(700, 520)">
    <rect x="0" y="0" width="40" height="25" rx="5" fill="#84CC16"/>
    <text x="20" y="17" text-anchor="middle" font-family="Arial, sans-serif" font-size="12" font-weight="bold" fill="white">A</text>
  </g>
</svg>
